<svg xmlns="http://www.w3.org/2000/svg" viewBox="0 0 161.94 154.78"><defs><style>.cls-1{fill:#72a9be;}.cls-2{fill:#1870b8;}.cls-3{fill:#d23f26;}.cls-4{fill:#f26534;}</style></defs><title>SHPE_logo_IconOnly_FullColor-RGB</title><g id="Layer_2" data-name="Layer 2"><g id="Layer_1-2" data-name="Layer 1"><path class="cls-1" d="M79.89,68.77a3.33,3.33,0,0,0,1.45-3c-1.6-19.48-3.42-48,6.78-52.07,7.06-2.83,12.43,10.38,15.55,21.14.39,1.36,2.14,1.26,1.89-.64-2-15.59-5.84-30.07-18-33.51C65.32-5.65,50.07,33.16,54.48,80.09a3.36,3.36,0,0,0,5.23,2.47Z"/><path class="cls-2" d="M82.05,86a3.33,3.33,0,0,0-1.45,3c1.6,19.48,3.42,48-6.78,52.07-7.06,2.83-12.43-10.38-15.55-21.14-.39-1.36-2.14-1.26-1.89.64,2,15.59,5.84,30.07,17.95,33.51,22.29,6.33,37.54-32.48,33.13-79.41a3.36,3.36,0,0,0-5.23-2.47Z"/><path class="cls-3" d="M69.13,105.05c-22.61-.53-44-6.76-43-17.76.56-5.77,8.83-9.88,13.5-12,1.16-.52,2.25-1.37,2.24-2.64v-.08c0-.62,0-1.21-.06-1.78A160.34,160.34,0,0,1,42,48.7c-.15-1.45-1.29-2-3.6-1.25-14.1,4.43-25.73,12.8-31.61,19.14C-2.19,76.29-1,85.73,3.2,92,13.77,107.65,50.71,108.27,69,107.41,70.43,107.34,70.59,105.08,69.13,105.05Z"/><path class="cls-4" d="M92.81,49.73c22.61.53,44,6.76,43,17.76-.56,5.77-8.83,9.88-13.5,12-1.15.52-2.25,1.37-2.24,2.64v.08c0,.62,0,1.21.07,1.78a161.88,161.88,0,0,1-.2,22.1c.15,1.45,1.29,2,3.6,1.25,14.1-4.43,25.73-12.8,31.61-19.14,9-9.7,7.86-19.14,3.63-25.4C148.17,47.14,111.23,46.51,93,47.37,91.51,47.44,91.35,49.7,92.81,49.73Z"/></g></g></svg>